<svg xmlns:dc="http://purl.org/dc/elements/1.1/" xmlns:cc="http://creativecommons.org/ns#" xmlns:rdf="http://www.w3.org/1999/02/22-rdf-syntax-ns#" xmlns:svg="http://www.w3.org/2000/svg" xmlns="http://www.w3.org/2000/svg" viewBox="0 0 762 762" fill="none"><metadata><rdf:RDF><cc:Work><dc:format>image/svg+xml</dc:format><dc:type rdf:resource="http://purl.org/dc/dcmitype/StillImage"/><dc:title>Adventurer</dc:title><dc:creator><cc:Agent><dc:title>Lisa Wischofsky</dc:title></cc:Agent></dc:creator><dc:source>https://www.instagram.com/lischis_adventures/</dc:source><cc:license rdf:resource="https://creativecommons.org/licenses/by/4.0/"/></cc:Work><cc:License rdf:about="https://creativecommons.org/licenses/by/4.0/"><cc:permits rdf:resource="https://creativecommons.org/ns#Reproduction"/><cc:permits rdf:resource="https://creativecommons.org/ns#Distribution"/><cc:permits rdf:resource="https://creativecommons.org/ns#DerivativeWorks"/><cc:requires rdf:resource="https://creativecommons.org/ns#Notice"/><cc:requires rdf:resource="https://creativecommons.org/ns#Attribution"/></cc:License></rdf:RDF></metadata><mask id="avatarsRadiusMask"><rect width="762" height="762" rx="0" ry="0" x="0" y="0" fill="#fff"/></mask><g mask="url(#avatarsRadiusMask)"><path d="M396.01 164.85c37.82 4.9 74.21 19.64 104.8 42.39 6.15 4.84 12.48 9.33 18.02 14.92 23.77 21.98 42.73 49.02 55.13 78.95 9.35 22.31 14.72 46.04 16.64 70.14 6.62.81 13.05 2.14 19.12 5 15.54 6.93 27.08 20.94 31.78 37.21 2.63 9.56 3.56 19.75 1.72 29.55-2.96 18.76-13.72 36.13-29.37 46.92-10.94 7.65-24.49 12.03-37.86 11.68-5.13-.05-10.04-1.6-15.13-1.79-1.85 2.17-3.23 4.84-4.76 7.25-18.66 29.62-44.57 54.51-74.64 72.4-28.1 16.73-59.9 27.16-92.46 30.32-11.08.7-21.87 2.05-32.98.74-51.69-2.3-102.07-23.44-140.15-58.43-29.03-26.55-50.84-60.83-62.54-98.39-7.09-22.85-10.62-46.78-10.07-70.71.52-40.34 12.53-80.58 33.94-114.76 19.1-30.81 45.91-56.58 77.2-74.83 29.63-17.28 63.35-27.68 97.59-29.87 14.66-1.47 29.44-.37 44.02 1.31Z" fill="#000"/><path d="M363 169.06c48.47-1.39 97.32 14.7 135.81 44.12 6.55 4.06 11.72 9.49 17.36 14.64 24.33 22.63 43.2 50.95 54.93 82.02 7.43 19.61 11.86 40.2 13.56 61.09-8.89.74-17.34 2.34-25.38 6.38-2.19 1.03-1.89 4.95.68 5.23 2.35.23 4.98-1.51 7.24-2.2 14.62-5.37 31.32-4.35 44.78 3.68 11.69 6.78 20.09 18.16 23.89 31.06 2.6 8.25 2.68 17.41 1.76 25.95-2.5 17.35-12.35 33.73-26.73 43.81-15.71 11.33-37.17 14.64-54.93 6.2-3.17-1.43-5.94-3.58-9.08-5.05-2.95-1.09-4.88 2.79-2.7 4.75 3.17 2.76 7.34 4.52 11 6.56-20.14 34.15-49.45 62.7-84.41 81.47-30.2 16.31-64.44 25.53-98.78 26.15-27.63.72-55.33-4.04-81.21-13.72-30.32-11.24-57.84-29.43-80.37-52.6-22.67-23.37-39.92-51.88-50.2-82.77-14.96-44.64-14.91-94.01.27-138.59 11.05-33.06 30.28-63.21 55.37-87.39 29.67-28.73 67.65-48.54 108.13-56.67 12.8-2.52 25.94-4.24 39.01-4.12Z" fill="rgba(236, 173, 128, 1)"/><path d="M605.03 404.4c2.63-.1 3.44 3.8 1.36 4.98-3.69 1.83-7.82 2.77-11.64 4.35-5.82 2.04-11.28 4.76-16.68 7.72 4.29 2.34 8.86 4.74 12.71 7.76 2.58 2.09 4.85 4.35 5.33 7.8-.26 3.59-2.73 6.55-5.45 8.69-5.86 4.66-13.92 7.18-20.79 10.26-1.75.62-4.43 1.99-5.59-.26-1.02-1.74-.06-3.11 1.57-3.87 6.65-3.3 14.86-5.62 20.79-10.16 1.37-1.14 3.39-2.74 3.61-4.62-4.07-5.63-12.42-8.59-18.23-12.09-2.34-1.72-2.29-4.24-.16-6.13 7.27-5.64 16.98-9.26 25.57-12.38 2.42-.83 5.03-1.95 7.6-2.05Z" fill="#000"/><g transform="translate(-161 -83)"><path d="M550.3 424.38c22.91-2.41 46.19 7.99 59.51 26.79 8.38 11.53 12.6 25.62 12.34 39.84-.45 10.96-3.32 21.75-8.93 31.21-8.53 14.65-23.03 25.87-39.46 30.13-13.66 3.68-28.41 2.77-41.51-2.57-13.65-5.57-25.24-15.76-32.37-28.67-7.41-12.95-9.7-28.21-7.34-42.87 2.24-13.11 8.51-25.37 17.91-34.79 10.63-10.77 24.77-17.58 39.85-19.07Z" fill="#000"/><path d="M549.26 430.26c15.15-1.85 30.28 1.89 42.62 10.89 15.43 11.05 25 29.84 24.48 48.85.05 22.69-14.12 44.35-34.86 53.52-10.79 4.85-22.81 6.65-34.5 4.52-16.4-2.64-31.49-12.63-40.35-26.67-5.6-8.78-8.74-18.95-9.37-29.32-.6-14.46 4.23-29.16 13.41-40.36 9.45-11.75 23.64-19.57 38.57-21.43Z" fill="#fff"/><path d="M381.24 447.1c12.75-1.33 25.88 1.93 36.49 9.13 12.44 8.34 21.16 21.91 23.47 36.73 1.17 8.18.85 16.9-1.66 24.82-3.88 13.03-12.79 24.38-24.49 31.29-10.44 6.22-22.99 8.89-35.05 7.23-15.79-1.81-30.35-10.99-39.02-24.28-5.54-8.32-8.46-18.03-9.11-27.97-.3-12.31 3.26-24.64 10.57-34.6 9.04-12.53 23.43-20.8 38.8-22.35Z" fill="#000"/><path d="M376.5 453.67c18.86-4.33 39.25 3.64 50.42 19.36 7.92 11.03 11.42 25.76 8.17 39.05-2.03 9.76-7.16 18.79-14.44 25.58-8.03 7.66-18.61 12.28-29.64 13.28-19.88 1.83-39.68-9.53-48.32-27.49-7.78-15.66-6.41-34.9 3.48-49.31 7.02-10.4 18.06-17.87 30.33-20.47Z" fill="#fff"/><path d="M576.41 464.4c5.74-1.68 12.29-1.2 17.67 1.49 9.98 4.7 16.69 17.39 12.92 28.14-2.09 8.4-8.81 15.23-17.18 17.45-6.55 1.67-13.68.8-19.44-2.84-8.89-5.49-13.54-16.73-10.71-26.86 2.08-8.31 8.57-14.91 16.74-17.38ZM408.46 478.49c12.74-1.61 25.04 8.55 25.32 21.49 1.08 12.38-9.26 24.22-21.78 24.29-12.48.61-23.88-9.65-23.87-22.26-.71-11.8 8.69-22.33 20.33-23.52Z" fill="#000"/></g><g transform="translate(-161 -83)"><g fill="#000"><path d="M545.03 378.5c24.7.94 48.04 8.97 69.45 20.99 2.26 1.32 4.92 2.49 6.79 4.33 1.3 2.39-.38 5.13-3.2 4.19-16.58-6.21-33.56-9.63-51.06-12.02-20.3-2.34-39.92-3.68-60.2-.13-3.2.44-6.87 2.16-10.08 1.59-2.66-1.69-1.2-6.1 1.29-7.37 13.63-9.33 30.79-12.1 47.01-11.58ZM407.99 396.92c3.51.64 6.6 1.92 9.63 3.78-.15 1.2-.26 2.4-.33 3.62-2.7.74-5.46 1.12-8.24 1.34-13.17 1.15-26.45 5.11-38.81 9.69-12.23 4.75-24.78 10.64-35.19 18.71-2.82 2.03-4.13 4.82-8.08 4.47-.5-.9-1-1.79-1.51-2.67.89-1.59 1.68-3.17 2.76-4.64 9.55-13.17 23.64-23.22 38.61-29.35 12.7-5.15 27.61-8.05 41.16-4.95Z"/></g></g><g transform="translate(-161 -83)"><path d="M495.999 576.26c3.08-.09 6.12-.07 9.17.33.43.8.85 1.6 1.28 2.39-.42.82-.84 1.64-1.25 2.47-7.68.86-15.48.06-23.2.66-28.03.19-55.98.31-84.04.55-1.67.13-4.56-.53-4.37-2.68-.53-1.67 1.85-3.31 3.35-3.17 33.02-.15 66.04-.35 99.06-.55Z" fill="#000"/></g><g transform="translate(-161 -83)"/><g transform="translate(-161 -83)"><path d="M570.1 171.12c2.7-1.1 4.86.53 5.77 3.03 2.52 7.64.94 16.43-1.66 23.86 6.48-3.59 13.39-6.19 20.8-6.93 16.37-1.93 32.5 2.34 46.87 10.06 11.74 6.32 21.47 14.77 30.85 24.14 9.6 9.66 21.27 19.21 34.32 23.63 7.54 2.7 15.81 2.89 23.47.6 2.04-.41 5.19-1.67 6.83.13 1.79 1.49.79 4.22.41 6.16-3.44 11.52-8.62 22.16-18.63 29.35 13.15 5.47 24.07 15.42 30.67 28.05 6.97 13.36 10.31 28.75 9.85 43.8.18 10.63-1.91 21.02-5.17 31.09 7.9 8.29 12.39 19.6 13.57 30.89 1.41 13.68-1.53 28.27-7.79 40.49-.83 1.82-2.61 1.18-4.23 1.2-4.34-.47-8.67-.77-13.05-.55-5.76.18-11.48 1.98-16.8 4.1-2.08.74-3.91 1.64-6.19 1.18-7.42-1.35-13.55-5.5-20.8-7.86 3.16 4.34 6.34 8.78 8.9 13.51.75 1.5 1.67 3.25 1.71 4.95-.2 2.36-3.48 3.2-4.7.95-3.95-7.23-8.22-14.15-13.57-20.46-2.62-2.55.39-6.24 3.46-5.65 4.24.67 8.31 2.66 12.38 4-3.53-5.07-7.16-10.32-11.45-14.78-2.1-2.21-4.79-3.86-6.77-6.17-.21-1.4.2-2.79.56-4.13 4.76-14.21 4.39-30.14.84-44.58-3.02-12.04-8.09-23.41-16.24-32.87-5.19-2.21-10.31-4.5-15.09-7.53-11.31-6.79-20.74-16.09-31.81-23.09-14.45-9.38-34.11-10.05-49.5-2.6-1.53.58-3.16.43-3.59-1.39-1.38-2.7.5-4.42 1.82-6.59 4.8-6.68 9.79-13.23 14.87-19.7-7.2 4.08-13.74 9.19-19.66 14.96-2.68 2.56-4.67 5.61-6.49 8.82-1.67.22-3.32.46-5.01.53-2.36-2.87-2.98-6.13-6.39-8.19-6.3-4.16-15.37-3.7-22.47-2.41-18.86 3.77-37.4 10.11-56.99 10.68-11.29.24-22.31-2.23-31.72-8.65-7.4 5.01-15.22 8.92-24.09 10.52-14.21 2.64-29.42 1.1-43.3-2.65-7.6 6.08-12.8 13.53-18.89 20.99-6.11 7.91-12.18 16.25-16.78 25.14-.94 1.59-1.8 3.69-3.32 4.79-4.21 2.58-8.99 3.91-13.9 4.22-8.41.63-17.47-.66-24.46-5.7-6.15-4.36-9.73-11.12-11.06-18.44-1.82-9.79-.42-20.25 3.01-29.55.72-2.26 3.56-3.14 4.88-.95 2.24 4.49 3.21 8.75 8.41 10.77 4.66 1.45 10.38-1.11 14.72-2.83-9.74-8.83-13.85-22.08-12.35-34.98 2.22-20.18 13.37-39.57 27.31-54 11.38-12.03 25.89-20.44 42.02-24.23 6.3-1.41 13.09-3.16 19.56-2.78 2.36.01 3.09 3.47 1.25 4.8-8.72 7.82-11.67 20.96-8.92 32.13 3.31-5.65 6.47-11.3 10.72-16.32 15.36-18.65 39.23-29.38 62.9-32.15 9.31-1.42 18.61-1.21 27.98-1.94 23.32-.58 46.76-3.72 67.92-14.1 5.09-2.37 9.17-6.43 14.21-8.77Z" fill="#000"/><path d="M570.84 177.21c1.49 7.08-.16 14.83-3.21 21.3-.89 2.17-3.47 4.75-2.27 7.14.66.99 2.49 2.2 3.65 1.46 3.95-2.02 7.55-4.64 11.68-6.37 8.88-4.17 18.62-5.19 28.32-4.15 17.41 1.95 33.16 9.72 46.57 20.79 8.21 6.5 14.87 14.47 22.92 21.12 8.47 7.05 17.91 13.3 28.56 16.47 8.23 2.63 16.65 2.52 24.94.2-2.7 7.89-6.3 16.45-12.52 22.24-2.66 2.59-5.91 4.11-8.96 6.14-1.58 1.4-1.88 2.79-.78 4.65 3.34 1.07 6.75 1.48 9.95 3.07 8.13 4 15.35 10.01 20.6 17.41 7.63 10.82 11.85 24.24 13.29 37.32.96 12.24.27 24.41-3.35 36.2-.65 2.25-1.8 4.41-2.21 6.71 2.41 3.31 5.73 5.75 7.68 9.49 9.74 16.68 8.52 36.33 1.61 53.8-.55.87-.85 3.17-2.27 2.65-9.5-1.33-18.92-.14-27.86 3.3-1.99.69-4.04 1.82-6.15 2.01-1.55-.29-3.02-.78-4.52-1.26-5.87-9.68-12.69-19.4-21.4-26.74 8.34-25.83 2.83-55.65-12.4-77.86 11.21 1.9 21.8-.94 31.88-5.7 3.26-1.62 6.9-2.97 9.8-5.19 1.96-2.18.13-4.9-2.51-4.99-10.43-.26-19.63-7.62-26.08-15.25-5.01-6.27-10.12-13.17-9.26-21.64l-2.52-.84c-.87.34-1.73.67-2.59 1.01-1.64 5.44.39 10.12 2.84 14.89 6.55 11.63 16.23 21.31 28.77 26.31-7.59 3.76-16.47 6.78-25.04 6.25-8.22-.47-16.34-3.82-23.41-7.89-11.69-6.68-20.86-15.57-31.85-23.02-6.58-4.45-13.81-7.71-21.71-8.89-9.2-1.24-18.9-.96-27.79 1.92 4.99-6.94 10.15-13.8 15.73-20.28 1.39-1.64 2.85-3.31 4.01-5.13 1.07-1.34.41-3.66.39-5.25-2.12-.08-3.97-.19-5.88.88-13.18 6.46-26.47 15.61-35.24 27.53-2.83-3.87-6.2-6.94-10.81-8.49-9.01-3.08-19.37-1.66-28.44.45-18.22 3.91-37.25 10.25-55.99 8.76-12.1-.7-23.85-6.98-31.13-16.66-9.11-12.69-10.45-30.62-3.34-44.54 5.55-11.46 14.91-20.42 26.23-26.14-.52 4.75-.8 9.25 1.08 13.78 2.73 7.25 8.81 12.62 16.13 14.95 9.24 2.96 19.27 3.43 28.51 6.53 1.73.51 3.7 1.4 5.52 1.22 1.37-.12 1.91-1.98 2.66-2.91-1.53-1.47-3.06-2.78-5.12-3.44-8.14-2.8-17.14-3.81-25.54-5.66-3.46-.85-6.98-1.96-9.93-4.01-5.89-3.98-9.21-11.67-7.6-18.66 1.24-4.4 5.19-5.34 8.01-8.93-.41-.99-.82-1.98-1.23-2.98-4.65-.57-9.3 2.49-13.52 4.28-15.1 6.94-27.29 19.65-32.86 35.39-6.33 17.72-1.32 39.39 13.03 51.81-3.69 2.2-7.39 4.3-11.41 5.85-9.58 3.86-20.34 3.93-30.5 3.25-17.9-1.2-35.13-7.22-48.71-19.16-2.04-1.91-3.22-4.43-5.18-6.37-2.11-.28-3.33.49-3.45 2.66.09 3.72 3.46 6.98 6.12 9.23 7.21 5.82 15.33 10.57 23.97 13.91-3.48 3.42-6.88 6.89-9.94 10.69-8.55 10.36-17.55 21.23-23.89 33.1-1.58 2.94-2.97 5.58-6.39 6.66-7.21 2.16-16.06 1.77-23.04-1.09-5.29-2.1-9.39-6.33-11.55-11.57-3.34-7.73-2.79-17.08-1.33-25.19 2.87 2.55 5.39 5.53 9.39 6.26 6.59 1.24 12.61-.92 18.53-3.57 2.05-.95 3.77-2.2 4.31-4.52.01-1.94-2.18-3.08-3.43-4.31-5.68-4.68-9.01-11.41-10.31-18.57-1.43-9.46.26-18.64 3.42-27.56 5.53-15.43 15.4-29.43 27.62-40.3 12.23-10.85 27.58-17.05 43.68-19.26-4.17 7.89-7 16.02-6.09 25.1.52 3.93 1.11 8.57 3.28 11.98 1.61 1.53 3.79 3.88 6.12 2.21 3.04-9.99 8.95-18.47 16.15-25.92 14.09-13.83 32.37-22.11 51.77-25.16 11.39-1.64 22.51-2.1 33.98-2.41 23.39-.99 45.88-4.15 67.14-14.51 4.54-2.22 8.45-5.27 12.67-7.99Z" fill="rgba(62, 172, 44, 1)"/><path d="M699.75 472.19c2.29 3.51 3.87 7.52 5.66 11.31.84 2.24 2.29 4.44.8 6.75-1.17.48-2.24.64-3.4.03-1.9-2.6-2.85-5.96-4.27-8.85-1.46-3.54-3.75-6.02-3.23-10.08 1.49-.01 3.5-.75 4.44.84Z" fill="#000"/></g></g></svg>